<svg width="34" height="34" viewBox="0 0 34 34" fill="none" xmlns="http://www.w3.org/2000/svg">
<g clip-path="url(#clip0_659_520)">
<path opacity="0.2" d="M1 10.9636V12.5455L13.2667 26.7818L17 31L26.0667 20.9818L33 12.0182L28.2 3.58182L27.1333 2H7.93333L6.33333 2.52727L1 10.9636Z" fill="url(#paint0_linear_659_520)"/>
<path d="M17.0006 32.5832C16.7924 32.5832 16.5941 32.4911 16.4581 32.331L0.166391 12.9808C-0.0220255 12.7569 -0.0531921 12.4396 0.0870579 12.1846L5.79906 1.78484C5.92373 1.55817 6.16173 1.4165 6.41956 1.4165H27.5817C27.841 1.4165 28.079 1.55817 28.2022 1.78484L33.9128 12.1846C34.0545 12.441 34.0219 12.7569 33.8335 12.9808L17.5418 32.331C17.4072 32.4911 17.2089 32.5832 17.0006 32.5832ZM1.56464 12.4396L17.0006 30.7755L32.4366 12.4396L27.1624 2.83317H6.83889L1.56464 12.4396Z" fill="white"/>
<path d="M32.9388 13.4582H1.0638C0.672802 13.4582 0.355469 13.1408 0.355469 12.7498C0.355469 12.3588 0.672802 12.0415 1.0638 12.0415H32.9388C33.3298 12.0415 33.6471 12.3588 33.6471 12.7498C33.6471 13.1408 33.3298 13.4582 32.9388 13.4582Z" fill="white"/>
<path d="M24.1719 13.0601C23.9495 13.0601 23.7299 12.9553 23.5925 12.7583L17.0036 3.36159L10.4982 12.7088C10.2772 13.0303 9.83381 13.1083 9.51365 12.8858C9.19065 12.662 9.11273 12.2214 9.33657 11.8998L16.4199 1.71967C16.5516 1.52984 16.7684 1.4165 16.9993 1.4165H17.0007C17.2316 1.4165 17.447 1.52842 17.5801 1.71825L24.7513 11.9452C24.9766 12.2668 24.8986 12.7073 24.5785 12.9312C24.4566 13.0176 24.3136 13.0601 24.1719 13.0601Z" fill="white"/>
<path d="M17 32.5833C16.6997 32.5833 16.4334 32.3949 16.3328 32.113L5.7517 2.36296C5.62136 1.99321 5.81403 1.58804 6.18095 1.45771C6.55211 1.32171 6.95586 1.51863 7.0862 1.88696L17 29.7613L26.9139 1.88696C27.0442 1.52004 27.4479 1.32454 27.8191 1.45771C28.1874 1.58804 28.3801 1.99321 28.2484 2.36296L17.6673 32.113C17.5667 32.3949 17.3004 32.5833 17 32.5833Z" fill="white"/>
</g>
<defs>
<linearGradient id="paint0_linear_659_520" x1="17" y1="2" x2="17" y2="31" gradientUnits="userSpaceOnUse">
<stop stop-color="white"/>
<stop offset="1" stop-color="white" stop-opacity="0"/>
</linearGradient>
<clipPath id="clip0_659_520">
<rect width="34" height="34" fill="white"/>
</clipPath>
</defs>
</svg>
