<svg width="1269" height="1307" viewBox="0 0 1269 1307" fill="none" xmlns="http://www.w3.org/2000/svg">
<g opacity="0.5" filter="url(#filter0_f_212_61)">
<path d="M919 721C919 661.544 904.71 602.959 877.335 550.18C849.96 497.401 810.3 451.975 761.698 417.728C713.096 383.481 656.975 361.416 598.063 353.393C539.151 345.37 479.173 351.624 423.183 371.627C367.193 391.63 316.831 424.796 276.338 468.332C235.846 511.868 206.411 564.499 190.511 621.789C174.612 679.08 172.715 739.353 184.979 797.53C197.244 855.707 223.311 910.085 260.985 956.082L422.341 823.922C405.847 803.784 394.435 779.977 389.065 754.506C383.695 729.035 384.526 702.647 391.487 677.564C398.448 652.482 411.335 629.44 429.063 610.379C446.791 591.318 468.841 576.798 493.354 568.04C517.867 559.282 544.126 556.545 569.918 560.057C595.711 563.57 620.281 573.23 641.56 588.224C662.838 603.217 680.202 623.106 692.187 646.213C704.172 669.32 710.428 694.969 710.428 721H919Z" fill="#F2994A"/>
</g>
<defs>
<filter id="filter0_f_212_61" x="-173" y="0" width="1442" height="1306.08" filterUnits="userSpaceOnUse" color-interpolation-filters="sRGB">
<feFlood flood-opacity="0" result="BackgroundImageFix"/>
<feBlend mode="normal" in="SourceGraphic" in2="BackgroundImageFix" result="shape"/>
<feGaussianBlur stdDeviation="175" result="effect1_foregroundBlur_212_61"/>
</filter>
</defs>
</svg>
