<svg width="34" height="25" viewBox="0 0 34 25" fill="none" xmlns="http://www.w3.org/2000/svg">
<path d="M34 6.9626C34 5.6822 32.9621 4.64435 31.6818 4.64435C30.4016 4.64435 29.3638 5.6822 29.3638 6.9626C29.3674 7.05676 29.3767 7.15066 29.392 7.24379L22.6596 10.61L18.2309 4.283C19.3159 3.60312 19.6441 2.17253 18.9642 1.08772C18.2846 0.00265682 16.854 -0.325743 15.7689 0.354143C14.6841 1.03403 14.3557 2.46462 15.0356 3.54942C15.2216 3.84618 15.4722 4.09701 15.7689 4.283L11.3404 10.61L4.608 7.24379C4.62304 7.15066 4.63264 7.05676 4.63627 6.9626C4.6425 5.6822 3.60957 4.63942 2.32943 4.63319C1.0493 4.62697 0.00625334 5.65964 2.77637e-05 6.94003C-0.00567902 8.11537 0.869015 9.10887 2.03553 9.25231L4.63653 20.9577V23.9626C4.63653 24.3893 4.98231 24.7353 5.40902 24.7353H28.591C29.0177 24.7353 29.3638 24.3893 29.3638 23.9626V20.9577L31.9645 9.25206C33.1235 9.11198 33.9966 8.13015 34 6.9626ZM31.6818 6.18985C32.1087 6.18985 32.4545 6.53589 32.4545 6.9626C32.4545 7.38957 32.1087 7.73535 31.6818 7.73535C31.255 7.73535 30.909 7.38957 30.909 6.9626C30.9093 6.53589 31.255 6.19011 31.6818 6.18985ZM17 1.5536C17.4267 1.5536 17.7728 1.89938 17.7728 2.32636C17.7728 2.75307 17.4267 3.09911 17 3.09911C16.5733 3.09911 16.2273 2.75307 16.2273 2.32636C16.2275 1.89964 16.5733 1.55386 17 1.5536ZM12.224 12.0419L17 5.21943L21.7761 12.0419C21.9955 12.356 22.4121 12.4616 22.7548 12.2901L30.0774 8.62924C30.1928 8.73922 30.3191 8.83728 30.4545 8.92132L27.9713 20.0991H6.02873L3.5455 8.92132C3.6809 8.83702 3.80723 8.73922 3.92266 8.62924L11.2452 12.2901C11.5879 12.4611 12.0042 12.3555 12.224 12.0419ZM1.54553 6.9626C1.54553 6.53589 1.89131 6.18985 2.31828 6.18985C2.74499 6.18985 3.09103 6.53589 3.09103 6.9626C3.09103 7.38957 2.74499 7.73535 2.31828 7.73535C1.89157 7.73509 1.54579 7.38931 1.54553 6.9626ZM27.8183 23.1898H6.18177V21.6443H27.8183V23.1898Z" fill="white"/>
</svg>
