<svg width="34" height="34" viewBox="0 0 34 34" fill="none" xmlns="http://www.w3.org/2000/svg">
<path opacity="0.2" d="M1 9V14.5C1.78689 17.3 10.8361 25.1667 15.2623 29H16.7377L22.1475 24L29.5246 16.5L31 11.5L29.0328 6L27.0656 4L22.1475 3L18.7049 5L15.7541 7L15.2623 7.5L13.2951 5L10.3443 3H5.91803L3.45902 6L1 9Z" fill="url(#paint0_linear_659_405)"/>
<path d="M16.0555 31.3944C15.5984 31.3944 15.1576 31.2247 14.8142 30.9165C13.517 29.7543 12.2663 28.6622 11.1629 27.6989L11.1572 27.6939C7.92217 24.8694 5.12858 22.4302 3.18484 20.0274C1.01205 17.3412 0 14.7944 0 12.0121C0 9.30881 0.90474 6.81489 2.54738 4.98939C4.20963 3.14229 6.49047 2.125 8.97048 2.125C10.8241 2.125 12.5216 2.72539 14.0158 3.90934C14.7698 4.50697 15.4533 5.23838 16.0555 6.09152C16.658 5.23838 17.3412 4.50697 18.0955 3.90934C19.5897 2.72539 21.2872 2.125 23.1408 2.125C25.6206 2.125 27.9017 3.14229 29.5639 4.98939C31.2066 6.81489 32.1111 9.30881 32.1111 12.0121C32.1111 14.7944 31.0993 17.3412 28.9265 20.0272C26.9827 22.4302 24.1894 24.8692 20.9548 27.6934C19.8494 28.6582 18.5968 29.7521 17.2966 30.917C16.9534 31.2247 16.5124 31.3944 16.0555 31.3944ZM8.97048 4.05216C7.02209 4.05216 5.23221 4.84883 3.9301 6.29558C2.60863 7.76417 1.88077 9.79424 1.88077 12.0121C1.88077 14.3521 2.72966 16.4449 4.63297 18.7978C6.47258 21.0721 9.20885 23.4611 12.377 26.2273L12.3829 26.2323C13.4905 27.1994 14.7461 28.2958 16.0528 29.4664C17.3674 28.2935 18.625 27.1954 19.7348 26.2268C22.9027 23.4606 25.6387 21.0721 27.4783 18.7978C29.3814 16.4449 30.2303 14.3521 30.2303 12.0121C30.2303 9.79424 29.5024 7.76417 28.181 6.29558C26.8791 4.84883 25.089 4.05216 23.1408 4.05216C21.7135 4.05216 20.4031 4.51701 19.246 5.43365C18.2148 6.2509 17.4965 7.28401 17.0754 8.00688C16.8588 8.37861 16.4776 8.60049 16.0555 8.60049C15.6334 8.60049 15.2522 8.37861 15.0356 8.00688C14.6148 7.28401 13.8964 6.2509 12.8651 5.43365C11.708 4.51701 10.3975 4.05216 8.97048 4.05216Z" fill="white"/>
<defs>
<linearGradient id="paint0_linear_659_405" x1="16" y1="3" x2="16" y2="29" gradientUnits="userSpaceOnUse">
<stop stop-color="white"/>
<stop offset="1" stop-color="white" stop-opacity="0"/>
</linearGradient>
</defs>
</svg>
