<svg width="63" height="57" viewBox="0 0 63 57" fill="none" xmlns="http://www.w3.org/2000/svg">
<path d="M4.59976 54.9613L28.5084 4.53237L40.606 30.0417L62.5433 20.5389L56.1912 21.6509C53.1079 9.21638 41.8865 0 28.5084 0C12.7547 0 0 12.7547 0 28.5084C0 34.9953 2.15667 40.9598 5.81289 45.7449L4.59976 54.9613Z" fill="white"/>
<path d="M23.1338 43.8744L26.8742 35.9722L34.2709 32.7709L28.4917 20.5723L15.0968 48.8785L11.1879 51.1363C15.9898 54.8093 21.988 56.9997 28.5086 56.9997C35.0291 56.9997 41.0274 54.8093 45.8293 51.1363L41.9204 48.8785L38.2136 41.0606L44.1781 37.6066L52.4004 54.961L51.1873 45.7446C54.8266 40.9595 57.0002 34.9781 57.0002 28.5081C57.0002 27.1097 56.8991 25.7449 56.6969 24.397L23.1338 43.8744Z" fill="white"/>
</svg>
