<svg width="154" height="67" viewBox="0 0 154 67" fill="none" xmlns="http://www.w3.org/2000/svg">
<path d="M5.40674 64.6036L33.5099 5.32752L47.7298 35.3122L73.5158 24.1422L66.0494 25.4493C62.4251 10.8333 49.235 0 33.5099 0C14.9923 0 0 14.9923 0 33.5099C0 41.1348 2.53503 48.1457 6.83269 53.7703L5.40674 64.6036Z" fill="#14CF93"/>
<path d="M27.1926 51.5713L31.5892 42.2828L40.2836 38.5199L33.4905 24.1812L17.7456 57.4534L13.1509 60.1072C18.7953 64.4247 25.8458 66.9994 33.5103 66.9994C41.1748 66.9994 48.2254 64.4247 53.8698 60.1072L49.275 57.4534L44.9179 48.2639L51.9289 44.2039L61.5937 64.603L60.1677 53.7697C64.4456 48.1451 67.0004 41.1143 67.0004 33.5093C67.0004 31.8655 66.8816 30.2613 66.6439 28.6769L27.1926 51.5713Z" fill="#14CF93"/>
<path d="M92.1206 45.0955C91.5012 45.0955 90.8342 45.0241 90.1195 44.8811C89.4287 44.7382 88.7735 44.4881 88.1542 44.1307C87.5348 43.7496 87.0226 43.2136 86.6176 42.5227C86.2365 41.8081 86.0459 40.9028 86.0459 39.807C86.0459 38.4968 86.3318 37.4129 86.9035 36.5553C87.4752 35.6977 88.2852 35.0307 89.3334 34.5542C90.4054 34.0539 91.6799 33.7085 93.1568 33.5179C94.6338 33.3274 96.2656 33.2321 98.0523 33.2321V31.8385C98.0523 31.2906 97.957 30.8141 97.7664 30.4091C97.5997 30.0042 97.29 29.6826 96.8374 29.4443C96.4086 29.2061 95.8011 29.087 95.015 29.087C94.2288 29.087 93.5856 29.1823 93.0854 29.3729C92.6089 29.5635 92.2635 29.8136 92.0491 30.1233C91.8585 30.4091 91.7632 30.7307 91.7632 31.0881V31.5169H86.9392C86.9154 31.3978 86.9035 31.2906 86.9035 31.1953C86.9035 31.0762 86.9035 30.9332 86.9035 30.7665C86.9035 29.6707 87.237 28.7297 87.904 27.9435C88.5711 27.1336 89.512 26.5142 90.727 26.0854C91.9419 25.6566 93.3593 25.4422 94.9792 25.4422C96.7183 25.4422 98.1714 25.6685 99.3387 26.1211C100.53 26.5738 101.435 27.2408 102.054 28.1222C102.698 29.0036 103.019 30.1114 103.019 31.4454V39.9857C103.019 40.4145 103.138 40.7361 103.377 40.9505C103.639 41.1411 103.924 41.2363 104.234 41.2363H105.413V44.4881C105.175 44.6072 104.806 44.7263 104.306 44.8454C103.805 44.9883 103.198 45.0598 102.483 45.0598C101.792 45.0598 101.173 44.9526 100.625 44.7382C100.101 44.5476 99.6603 44.2737 99.303 43.9163C98.9456 43.5352 98.6955 43.0826 98.5526 42.5585H98.3024C97.8975 43.0587 97.3972 43.4995 96.8016 43.8806C96.2299 44.2618 95.551 44.5595 94.7648 44.7739C94.0025 44.9883 93.1211 45.0955 92.1206 45.0955ZM93.8 41.3435C94.4671 41.3435 95.0626 41.2483 95.5867 41.0577C96.1108 40.8433 96.5515 40.5693 96.9088 40.2358C97.2662 39.8785 97.5401 39.4497 97.7307 38.9494C97.9451 38.4491 98.0523 37.9131 98.0523 37.3414V36.3051C96.7183 36.3051 95.5271 36.4004 94.479 36.591C93.4308 36.7578 92.597 37.0555 91.9776 37.4843C91.3821 37.9131 91.0843 38.5087 91.0843 39.271C91.0843 39.6998 91.1915 40.0691 91.4059 40.3787C91.6203 40.6884 91.93 40.9267 92.335 41.0934C92.7399 41.2602 93.2283 41.3435 93.8 41.3435Z" fill="black"/>
<path d="M105.916 44.6667L112.741 34.9115L106.417 25.871H112.384L115.957 31.5169H116.136L119.745 25.871H125.355L118.995 34.8758L125.713 44.6667H119.852L115.779 38.2705H115.6L111.527 44.6667H105.916Z" fill="black"/>
<path d="M128.331 23.1195V18.8315H133.298V23.1195H128.331ZM128.331 44.6667V25.871H133.298V44.6667H128.331Z" fill="black"/>
<path d="M137.857 44.6667V18.8315H142.824V44.6667H137.857Z" fill="black"/>
<path d="M147.991 44.6667V39.5569H153.173V44.6667H147.991Z" fill="black"/>
</svg>
