<svg width="154" height="67" viewBox="0 0 154 67" fill="none" xmlns="http://www.w3.org/2000/svg">
<path d="M5.5708 64.6036L33.674 5.32752L47.8939 35.3122L73.6799 24.1422L66.2134 25.4493C62.5891 10.8333 49.3991 0 33.674 0C15.1564 0 0.164062 14.9923 0.164062 33.5099C0.164062 41.1348 2.69909 48.1457 6.99676 53.7703L5.5708 64.6036Z" fill="#14CF93"/>
<path d="M27.3566 51.5713L31.7533 42.2828L40.4477 38.5199L33.6546 24.1812L17.9097 57.4534L13.3149 60.1072C18.9593 64.4247 26.0099 66.9994 33.6744 66.9994C41.3389 66.9994 48.3894 64.4247 54.0338 60.1072L49.4391 57.4534L45.082 48.2639L52.093 44.2039L61.7577 64.603L60.3318 53.7697C64.6096 48.1451 67.1645 41.1143 67.1645 33.5093C67.1645 31.8655 67.0457 30.2613 66.808 28.6769L27.3566 51.5713Z" fill="#14CF93"/>
<path d="M92.2846 45.0955C91.6653 45.0955 90.9982 45.0241 90.2836 44.8811C89.5927 44.7382 88.9376 44.4881 88.3182 44.1307C87.6988 43.7496 87.1867 43.2136 86.7817 42.5227C86.4005 41.8081 86.21 40.9028 86.21 39.807C86.21 38.4968 86.4958 37.4129 87.0676 36.5553C87.6393 35.6977 88.4492 35.0307 89.4974 34.5542C90.5694 34.0539 91.8439 33.7085 93.3209 33.5179C94.7979 33.3274 96.4297 33.2321 98.2164 33.2321V31.8385C98.2164 31.2906 98.1211 30.8141 97.9305 30.4091C97.7637 30.0042 97.454 29.6826 97.0014 29.4443C96.5726 29.2061 95.9652 29.087 95.179 29.087C94.3929 29.087 93.7497 29.1823 93.2494 29.3729C92.773 29.5635 92.4276 29.8136 92.2132 30.1233C92.0226 30.4091 91.9273 30.7307 91.9273 31.0881V31.5169H87.1033C87.0795 31.3978 87.0676 31.2906 87.0676 31.1953C87.0676 31.0762 87.0676 30.9332 87.0676 30.7665C87.0676 29.6707 87.4011 28.7297 88.0681 27.9435C88.7351 27.1336 89.6761 26.5142 90.891 26.0854C92.106 25.6566 93.5234 25.4422 95.1433 25.4422C96.8823 25.4422 98.3355 25.6685 99.5028 26.1211C100.694 26.5738 101.599 27.2408 102.218 28.1222C102.862 29.0036 103.183 30.1114 103.183 31.4454V39.9857C103.183 40.4145 103.302 40.7361 103.541 40.9505C103.803 41.1411 104.089 41.2363 104.398 41.2363H105.577V44.4881C105.339 44.6072 104.97 44.7263 104.47 44.8454C103.969 44.9883 103.362 45.0598 102.647 45.0598C101.956 45.0598 101.337 44.9526 100.789 44.7382C100.265 44.5476 99.8244 44.2737 99.467 43.9163C99.1097 43.5352 98.8596 43.0826 98.7166 42.5585H98.4665C98.0615 43.0587 97.5613 43.4995 96.9657 43.8806C96.394 44.2618 95.715 44.5595 94.9289 44.7739C94.1666 44.9883 93.2852 45.0955 92.2846 45.0955ZM93.9641 41.3435C94.6311 41.3435 95.2267 41.2483 95.7508 41.0577C96.2749 40.8433 96.7156 40.5693 97.0729 40.2358C97.4302 39.8785 97.7042 39.4497 97.8948 38.9494C98.1092 38.4491 98.2164 37.9131 98.2164 37.3414V36.3051C96.8823 36.3051 95.6912 36.4004 94.643 36.591C93.5949 36.7578 92.7611 37.0555 92.1417 37.4843C91.5461 37.9131 91.2484 38.5087 91.2484 39.271C91.2484 39.6998 91.3556 40.0691 91.57 40.3787C91.7844 40.6884 92.0941 40.9267 92.499 41.0934C92.904 41.2602 93.3924 41.3435 93.9641 41.3435Z" fill="white"/>
<path d="M106.08 44.6667L112.906 34.9115L106.581 25.871H112.548L116.122 31.5169H116.3L119.909 25.871H125.519L119.159 34.8758L125.877 44.6667H120.016L115.943 38.2705H115.764L111.691 44.6667H106.08Z" fill="white"/>
<path d="M128.495 23.1195V18.8315H133.462V23.1195H128.495ZM128.495 44.6667V25.871H133.462V44.6667H128.495Z" fill="white"/>
<path d="M138.021 44.6667V18.8315H142.988V44.6667H138.021Z" fill="white"/>
<path d="M148.155 44.6667V39.5569H153.337V44.6667H148.155Z" fill="white"/>
</svg>
