<svg width="178" height="161" viewBox="0 0 178 161" fill="none" xmlns="http://www.w3.org/2000/svg">
<path d="M13.673 155.241L81.2044 12.8019L115.375 84.8545L177.338 58.0133L159.396 61.1543C150.687 26.0322 118.992 0 81.2044 0C36.707 0 0.680664 36.0263 0.680664 80.5238C0.680664 98.8463 6.7723 115.693 17.0995 129.209L13.673 155.241Z" fill="white"/>
<path d="M66.0234 123.926L76.5886 101.606L97.481 92.5637L81.1573 58.1079L43.3226 138.061L32.2815 144.438C45.8449 154.813 62.7872 160.999 81.2049 160.999C99.6226 160.999 116.565 154.813 130.128 144.438L119.087 138.061L108.617 115.978L125.464 106.222L148.689 155.241L145.262 129.209C155.542 115.693 161.681 98.7981 161.681 80.5232C161.681 76.5732 161.396 72.7183 160.824 68.911L66.0234 123.926Z" fill="white"/>
</svg>
