<svg width="103" height="45" viewBox="0 0 103 45" fill="none" xmlns="http://www.w3.org/2000/svg">
<path d="M3.63139 43.3905L22.5067 3.57819L32.0573 23.7171L49.3763 16.2149L44.3615 17.0928C41.9273 7.27609 33.0683 0 22.5067 0C10.0695 0 0 10.0695 0 22.5067C0 27.6278 1.70263 32.3367 4.58912 36.1144L3.63139 43.3905Z" fill="#14CF93"/>
<path d="M18.2635 34.6376L21.2165 28.3991L27.056 25.8717L22.4935 16.2412L11.9185 38.5882L8.83252 40.3707C12.6235 43.2705 17.359 44.9997 22.5068 44.9997C27.6546 44.9997 32.39 43.2705 36.181 40.3707L33.095 38.5882L30.1686 32.4162L34.8775 29.6893L41.3687 43.3902L40.411 36.1141C43.2842 32.3364 45.0001 27.6143 45.0001 22.5064C45.0001 21.4023 44.9203 20.3249 44.7607 19.2607L18.2635 34.6376Z" fill="#14CF93"/>
<path d="M61.872 30.288C61.456 30.288 61.008 30.24 60.528 30.1439C60.064 30.0479 59.624 29.8799 59.208 29.6399C58.792 29.3839 58.448 29.024 58.176 28.5599C57.92 28.08 57.792 27.472 57.792 26.736C57.792 25.856 57.984 25.128 58.368 24.552C58.752 23.976 59.296 23.528 60 23.208C60.72 22.872 61.576 22.6399 62.568 22.512C63.56 22.384 64.656 22.32 65.856 22.32V21.3839C65.856 21.0159 65.792 20.6959 65.664 20.424C65.552 20.152 65.344 19.9359 65.04 19.7759C64.752 19.6159 64.344 19.5359 63.816 19.5359C63.288 19.5359 62.856 19.5999 62.52 19.7279C62.2 19.8559 61.968 20.024 61.824 20.232C61.696 20.424 61.632 20.6399 61.632 20.8799V21.1679H58.392C58.376 21.0879 58.368 21.0159 58.368 20.952C58.368 20.872 58.368 20.7759 58.368 20.6639C58.368 19.9279 58.592 19.2959 59.04 18.768C59.488 18.2239 60.12 17.8079 60.936 17.5199C61.752 17.2319 62.704 17.0879 63.792 17.0879C64.96 17.0879 65.936 17.2399 66.72 17.5439C67.52 17.8479 68.128 18.296 68.544 18.8879C68.976 19.4799 69.192 20.2239 69.192 21.12V26.8559C69.192 27.1439 69.272 27.36 69.432 27.504C69.608 27.632 69.8 27.6959 70.008 27.6959H70.8V29.8799C70.64 29.9599 70.392 30.04 70.056 30.12C69.72 30.216 69.312 30.264 68.832 30.264C68.368 30.264 67.952 30.1919 67.584 30.048C67.232 29.92 66.936 29.736 66.696 29.496C66.456 29.24 66.288 28.9359 66.192 28.584H66.024C65.752 28.92 65.416 29.216 65.016 29.472C64.632 29.728 64.176 29.928 63.648 30.072C63.136 30.216 62.544 30.288 61.872 30.288ZM63 27.768C63.448 27.768 63.848 27.704 64.2 27.576C64.552 27.432 64.848 27.248 65.088 27.024C65.328 26.784 65.512 26.496 65.64 26.16C65.784 25.8239 65.856 25.464 65.856 25.08V24.3839C64.96 24.3839 64.16 24.448 63.456 24.576C62.752 24.688 62.192 24.888 61.776 25.176C61.376 25.464 61.176 25.8639 61.176 26.3759C61.176 26.6639 61.248 26.9119 61.392 27.1199C61.536 27.3279 61.744 27.488 62.016 27.6C62.288 27.712 62.616 27.768 63 27.768Z" fill="white"/>
<path d="M71.1379 30L75.7219 23.448L71.4739 17.3759H75.4819L77.8819 21.1679H78.0019L80.4259 17.3759H84.1939L79.9219 23.424L84.4339 30H80.4979L77.7619 25.704H77.6419L74.9059 30H71.1379Z" fill="white"/>
<path d="M86.1922 15.5279V12.6479H89.5282V15.5279H86.1922ZM86.1922 30V17.3759H89.5282V30H86.1922Z" fill="white"/>
<path d="M92.5907 30V12.6479H95.9267V30H92.5907Z" fill="white"/>
<path d="M99.3971 30V26.568H102.877V30H99.3971Z" fill="white"/>
</svg>
